<?xml version="1.0" encoding="UTF-8"?>
<svg xmlns="http://www.w3.org/2000/svg" xmlns:xlink="http://www.w3.org/1999/xlink" width="19px" height="19px" viewBox="0 0 19 19" version="1.1">
<g id="surface1">
<path style=" stroke:none;fill-rule:nonzero;fill:rgb(0%,0%,0%);fill-opacity:1;" d="M 18.792969 15.476562 L 10.875 1.964844 C 10.269531 0.925781 8.738281 0.925781 8.125 1.964844 L 0.210938 15.476562 C -0.394531 16.511719 0.359375 17.816406 1.582031 17.816406 L 17.417969 17.816406 C 18.636719 17.816406 19.394531 16.515625 18.792969 15.476562 Z M 8.609375 6.234375 C 8.609375 5.738281 9.007812 5.34375 9.5 5.34375 C 9.992188 5.34375 10.390625 5.742188 10.390625 6.234375 L 10.390625 10.984375 C 10.390625 11.480469 9.992188 11.875 9.535156 11.875 C 9.074219 11.875 8.609375 11.480469 8.609375 10.984375 Z M 9.5 15.4375 C 8.855469 15.4375 8.335938 14.914062 8.335938 14.273438 C 8.335938 13.628906 8.859375 13.109375 9.5 13.109375 C 10.140625 13.109375 10.664062 13.632812 10.664062 14.273438 C 10.664062 14.914062 10.144531 15.4375 9.5 15.4375 Z M 9.5 15.4375 "/>
</g>
</svg>
